<mxfile host="app.diagrams.net" agent="Mozilla/5.0 (Macintosh; Intel Mac OS X 10_15_7) AppleWebKit/537.36 (KHTML, like Gecko) Chrome/126.0.0.0 Safari/537.36" version="24.7.7">
  <diagram name="第 1 页" id="tgMQHVBDHuroJmxmnegw">
    <mxGraphModel dx="1242" dy="749" grid="1" gridSize="10" guides="1" tooltips="1" connect="1" arrows="1" fold="1" page="1" pageScale="1" pageWidth="1654" pageHeight="1169" math="0" shadow="0">
      <root>
        <mxCell id="0" />
        <mxCell id="1" parent="0" />
        <mxCell id="X7fMvcYtnIwSlndWAkHu-51" value="" style="rounded=0;whiteSpace=wrap;html=1;dashed=1;fillColor=none;fontFamily=Tahoma;" parent="1" vertex="1">
          <mxGeometry x="30" y="109" width="760" height="691" as="geometry" />
        </mxCell>
        <mxCell id="X7fMvcYtnIwSlndWAkHu-61" value="" style="rounded=0;whiteSpace=wrap;html=1;fillColor=none;dashed=1;" parent="1" vertex="1">
          <mxGeometry x="353" y="650" width="377" height="120" as="geometry" />
        </mxCell>
        <mxCell id="X7fMvcYtnIwSlndWAkHu-8" style="edgeStyle=orthogonalEdgeStyle;rounded=1;orthogonalLoop=1;jettySize=auto;html=1;exitX=0.5;exitY=1;exitDx=0;exitDy=0;curved=0;fontFamily=Tahoma;" parent="1" source="X7fMvcYtnIwSlndWAkHu-1" target="X7fMvcYtnIwSlndWAkHu-2" edge="1">
          <mxGeometry relative="1" as="geometry" />
        </mxCell>
        <mxCell id="X7fMvcYtnIwSlndWAkHu-1" value="Peer Discovery" style="rounded=0;whiteSpace=wrap;html=1;shadow=1;fillColor=#dae8fc;strokeColor=#6c8ebf;fontFamily=Tahoma;" parent="1" vertex="1">
          <mxGeometry x="93" y="144" width="120" height="60" as="geometry" />
        </mxCell>
        <mxCell id="X7fMvcYtnIwSlndWAkHu-24" value="" style="edgeStyle=orthogonalEdgeStyle;rounded=1;orthogonalLoop=1;jettySize=auto;html=1;curved=0;fontFamily=Tahoma;" parent="1" source="X7fMvcYtnIwSlndWAkHu-2" target="X7fMvcYtnIwSlndWAkHu-16" edge="1">
          <mxGeometry relative="1" as="geometry" />
        </mxCell>
        <mxCell id="X7fMvcYtnIwSlndWAkHu-25" value="" style="edgeStyle=orthogonalEdgeStyle;rounded=1;orthogonalLoop=1;jettySize=auto;html=1;curved=0;fontFamily=Tahoma;" parent="1" source="X7fMvcYtnIwSlndWAkHu-2" target="X7fMvcYtnIwSlndWAkHu-15" edge="1">
          <mxGeometry relative="1" as="geometry" />
        </mxCell>
        <mxCell id="X7fMvcYtnIwSlndWAkHu-2" value="Connection Manager" style="strokeWidth=2;html=1;shape=mxgraph.flowchart.document2;whiteSpace=wrap;size=0.25;shadow=1;fillColor=#dae8fc;strokeColor=#6c8ebf;fontFamily=Tahoma;" parent="1" vertex="1">
          <mxGeometry x="174" y="274" width="140" height="60" as="geometry" />
        </mxCell>
        <mxCell id="X7fMvcYtnIwSlndWAkHu-3" value="Peers" style="strokeWidth=2;html=1;shape=mxgraph.flowchart.database;whiteSpace=wrap;fillColor=#1ba1e2;fontColor=#ffffff;strokeColor=#006EAF;fontFamily=Tahoma;" parent="1" vertex="1">
          <mxGeometry x="43" y="274" width="60" height="60" as="geometry" />
        </mxCell>
        <mxCell id="X7fMvcYtnIwSlndWAkHu-7" style="edgeStyle=orthogonalEdgeStyle;rounded=1;orthogonalLoop=1;jettySize=auto;html=1;exitX=0.5;exitY=1;exitDx=0;exitDy=0;entryX=0.617;entryY=-0.017;entryDx=0;entryDy=0;entryPerimeter=0;curved=0;fontFamily=Tahoma;" parent="1" source="X7fMvcYtnIwSlndWAkHu-1" target="X7fMvcYtnIwSlndWAkHu-3" edge="1">
          <mxGeometry relative="1" as="geometry" />
        </mxCell>
        <mxCell id="X7fMvcYtnIwSlndWAkHu-9" value="" style="endArrow=classic;html=1;rounded=0;entryX=0.5;entryY=1;entryDx=0;entryDy=0;fontFamily=Tahoma;" parent="1" target="X7fMvcYtnIwSlndWAkHu-1" edge="1">
          <mxGeometry width="50" height="50" relative="1" as="geometry">
            <mxPoint x="153" y="234" as="sourcePoint" />
            <mxPoint x="173" y="254" as="targetPoint" />
          </mxGeometry>
        </mxCell>
        <mxCell id="X7fMvcYtnIwSlndWAkHu-10" value="Wallet" style="rounded=0;whiteSpace=wrap;html=1;fillColor=#dae8fc;strokeColor=#6c8ebf;shadow=1;fontFamily=Tahoma;" parent="1" vertex="1">
          <mxGeometry x="438" y="274" width="120" height="60" as="geometry" />
        </mxCell>
        <mxCell id="X7fMvcYtnIwSlndWAkHu-11" value="" style="endArrow=classic;startArrow=classic;html=1;rounded=0;entryX=0;entryY=0.5;entryDx=0;entryDy=0;fontFamily=Tahoma;" parent="1" target="X7fMvcYtnIwSlndWAkHu-10" edge="1">
          <mxGeometry width="50" height="50" relative="1" as="geometry">
            <mxPoint x="315" y="303.5" as="sourcePoint" />
            <mxPoint x="395" y="303.5" as="targetPoint" />
          </mxGeometry>
        </mxCell>
        <mxCell id="X7fMvcYtnIwSlndWAkHu-12" value="RPC" style="rounded=0;whiteSpace=wrap;html=1;fillColor=#dae8fc;strokeColor=#6c8ebf;shadow=1;fontFamily=Tahoma;" parent="1" vertex="1">
          <mxGeometry x="634" y="274" width="120" height="60" as="geometry" />
        </mxCell>
        <mxCell id="X7fMvcYtnIwSlndWAkHu-13" value="" style="endArrow=classic;startArrow=classic;html=1;rounded=0;exitX=1;exitY=0.5;exitDx=0;exitDy=0;fontFamily=Tahoma;" parent="1" source="X7fMvcYtnIwSlndWAkHu-10" edge="1">
          <mxGeometry width="50" height="50" relative="1" as="geometry">
            <mxPoint x="564" y="304" as="sourcePoint" />
            <mxPoint x="634" y="303.5" as="targetPoint" />
          </mxGeometry>
        </mxCell>
        <mxCell id="X7fMvcYtnIwSlndWAkHu-15" value="Txs" style="strokeWidth=2;html=1;shape=mxgraph.flowchart.document2;whiteSpace=wrap;size=0.25;shadow=1;fillColor=#dae8fc;strokeColor=#6c8ebf;fontFamily=Tahoma;" parent="1" vertex="1">
          <mxGeometry x="121" y="392" width="90" height="60" as="geometry" />
        </mxCell>
        <mxCell id="X7fMvcYtnIwSlndWAkHu-16" value="Blocks" style="strokeWidth=2;html=1;shape=mxgraph.flowchart.document2;whiteSpace=wrap;size=0.25;shadow=1;fillColor=#dae8fc;strokeColor=#6c8ebf;fontFamily=Tahoma;" parent="1" vertex="1">
          <mxGeometry x="291" y="392" width="90" height="60" as="geometry" />
        </mxCell>
        <mxCell id="X7fMvcYtnIwSlndWAkHu-26" value="" style="endArrow=classic;html=1;rounded=0;entryX=0.514;entryY=0.883;entryDx=0;entryDy=0;entryPerimeter=0;fontFamily=Tahoma;" parent="1" edge="1">
          <mxGeometry width="50" height="50" relative="1" as="geometry">
            <mxPoint x="244" y="359" as="sourcePoint" />
            <mxPoint x="243.96000000000004" y="326.98" as="targetPoint" />
          </mxGeometry>
        </mxCell>
        <mxCell id="X7fMvcYtnIwSlndWAkHu-27" value="Mempool" style="rounded=0;whiteSpace=wrap;html=1;fillColor=#dae8fc;strokeColor=#6c8ebf;shadow=1;fontFamily=Tahoma;" parent="1" vertex="1">
          <mxGeometry x="111" y="509" width="120" height="60" as="geometry" />
        </mxCell>
        <mxCell id="X7fMvcYtnIwSlndWAkHu-28" value="Validation Engine" style="rounded=0;whiteSpace=wrap;html=1;fillColor=#dae8fc;strokeColor=#6c8ebf;shadow=1;fontFamily=Tahoma;" parent="1" vertex="1">
          <mxGeometry x="300" y="509" width="89" height="60" as="geometry" />
        </mxCell>
        <mxCell id="X7fMvcYtnIwSlndWAkHu-29" value="" style="endArrow=classic;startArrow=classic;html=1;rounded=0;exitX=0.5;exitY=0;exitDx=0;exitDy=0;entryX=0.544;entryY=0.817;entryDx=0;entryDy=0;entryPerimeter=0;fontFamily=Tahoma;" parent="1" source="X7fMvcYtnIwSlndWAkHu-27" target="X7fMvcYtnIwSlndWAkHu-15" edge="1">
          <mxGeometry width="50" height="50" relative="1" as="geometry">
            <mxPoint x="121" y="489" as="sourcePoint" />
            <mxPoint x="171" y="469" as="targetPoint" />
          </mxGeometry>
        </mxCell>
        <mxCell id="X7fMvcYtnIwSlndWAkHu-33" value="Miner" style="rounded=0;whiteSpace=wrap;html=1;fillColor=#dae8fc;strokeColor=#6c8ebf;shadow=1;fontFamily=Tahoma;" parent="1" vertex="1">
          <mxGeometry x="111" y="614" width="120" height="60" as="geometry" />
        </mxCell>
        <mxCell id="X7fMvcYtnIwSlndWAkHu-34" value="" style="endArrow=classic;startArrow=classic;html=1;rounded=0;exitX=0.5;exitY=0;exitDx=0;exitDy=0;fontFamily=Tahoma;" parent="1" source="X7fMvcYtnIwSlndWAkHu-33" edge="1">
          <mxGeometry width="50" height="50" relative="1" as="geometry">
            <mxPoint x="121" y="619" as="sourcePoint" />
            <mxPoint x="171" y="569" as="targetPoint" />
          </mxGeometry>
        </mxCell>
        <mxCell id="X7fMvcYtnIwSlndWAkHu-35" value="" style="endArrow=classic;startArrow=classic;html=1;rounded=0;entryX=0;entryY=0.5;entryDx=0;entryDy=0;exitX=1;exitY=0.5;exitDx=0;exitDy=0;fontFamily=Tahoma;" parent="1" source="X7fMvcYtnIwSlndWAkHu-27" target="X7fMvcYtnIwSlndWAkHu-28" edge="1">
          <mxGeometry width="50" height="50" relative="1" as="geometry">
            <mxPoint x="231" y="549" as="sourcePoint" />
            <mxPoint x="281" y="499" as="targetPoint" />
          </mxGeometry>
        </mxCell>
        <mxCell id="X7fMvcYtnIwSlndWAkHu-38" value="" style="endArrow=classic;startArrow=classic;html=1;rounded=0;exitX=0.5;exitY=0;exitDx=0;exitDy=0;entryX=0.589;entryY=0.867;entryDx=0;entryDy=0;entryPerimeter=0;fontFamily=Tahoma;" parent="1" source="X7fMvcYtnIwSlndWAkHu-28" target="X7fMvcYtnIwSlndWAkHu-16" edge="1">
          <mxGeometry width="50" height="50" relative="1" as="geometry">
            <mxPoint x="300" y="489" as="sourcePoint" />
            <mxPoint x="350" y="439" as="targetPoint" />
          </mxGeometry>
        </mxCell>
        <mxCell id="X7fMvcYtnIwSlndWAkHu-39" value="Storage Engine" style="rounded=0;whiteSpace=wrap;html=1;fillColor=#dae8fc;strokeColor=#6c8ebf;shadow=1;fontFamily=Tahoma;" parent="1" vertex="1">
          <mxGeometry x="442" y="509" width="120" height="60" as="geometry" />
        </mxCell>
        <mxCell id="X7fMvcYtnIwSlndWAkHu-40" value="" style="endArrow=classic;startArrow=classic;html=1;rounded=1;entryX=0.5;entryY=1;entryDx=0;entryDy=0;curved=0;fontFamily=Tahoma;" parent="1" target="X7fMvcYtnIwSlndWAkHu-28" edge="1">
          <mxGeometry width="50" height="50" relative="1" as="geometry">
            <mxPoint x="230" y="649" as="sourcePoint" />
            <mxPoint x="280" y="599" as="targetPoint" />
            <Array as="points">
              <mxPoint x="345" y="649" />
            </Array>
          </mxGeometry>
        </mxCell>
        <mxCell id="X7fMvcYtnIwSlndWAkHu-41" value="" style="endArrow=classic;startArrow=classic;html=1;rounded=0;exitX=1;exitY=0.5;exitDx=0;exitDy=0;entryX=0;entryY=0.5;entryDx=0;entryDy=0;fontFamily=Tahoma;" parent="1" target="X7fMvcYtnIwSlndWAkHu-39" edge="1">
          <mxGeometry width="50" height="50" relative="1" as="geometry">
            <mxPoint x="389" y="538.5" as="sourcePoint" />
            <mxPoint x="430" y="539" as="targetPoint" />
          </mxGeometry>
        </mxCell>
        <mxCell id="X7fMvcYtnIwSlndWAkHu-43" value="Headers" style="strokeWidth=2;html=1;shape=mxgraph.flowchart.database;whiteSpace=wrap;fillColor=#1ba1e2;fontColor=#ffffff;strokeColor=#006EAF;fontFamily=Tahoma;" parent="1" vertex="1">
          <mxGeometry x="380" y="674" width="60" height="60" as="geometry" />
        </mxCell>
        <mxCell id="X7fMvcYtnIwSlndWAkHu-44" value="Blocks" style="strokeWidth=2;html=1;shape=mxgraph.flowchart.database;whiteSpace=wrap;fillColor=#1ba1e2;fontColor=#ffffff;strokeColor=#006EAF;fontFamily=Tahoma;" parent="1" vertex="1">
          <mxGeometry x="473" y="674" width="58" height="60" as="geometry" />
        </mxCell>
        <mxCell id="X7fMvcYtnIwSlndWAkHu-45" value="Coins" style="strokeWidth=2;html=1;shape=mxgraph.flowchart.database;whiteSpace=wrap;fillColor=#1ba1e2;fontColor=#ffffff;strokeColor=#006EAF;fontFamily=Tahoma;" parent="1" vertex="1">
          <mxGeometry x="562" y="674" width="60" height="60" as="geometry" />
        </mxCell>
        <mxCell id="X7fMvcYtnIwSlndWAkHu-47" style="edgeStyle=orthogonalEdgeStyle;rounded=1;orthogonalLoop=1;jettySize=auto;html=1;exitX=0.5;exitY=1;exitDx=0;exitDy=0;entryX=0.5;entryY=0;entryDx=0;entryDy=0;entryPerimeter=0;curved=0;fontFamily=Tahoma;" parent="1" target="X7fMvcYtnIwSlndWAkHu-43" edge="1">
          <mxGeometry relative="1" as="geometry">
            <mxPoint x="502" y="594" as="sourcePoint" />
          </mxGeometry>
        </mxCell>
        <mxCell id="X7fMvcYtnIwSlndWAkHu-48" style="edgeStyle=orthogonalEdgeStyle;rounded=1;orthogonalLoop=1;jettySize=auto;html=1;exitX=0.5;exitY=1;exitDx=0;exitDy=0;entryX=0.5;entryY=0;entryDx=0;entryDy=0;entryPerimeter=0;curved=0;fontFamily=Tahoma;" parent="1" target="X7fMvcYtnIwSlndWAkHu-45" edge="1">
          <mxGeometry relative="1" as="geometry">
            <mxPoint x="502" y="594" as="sourcePoint" />
          </mxGeometry>
        </mxCell>
        <mxCell id="X7fMvcYtnIwSlndWAkHu-49" value="" style="endArrow=classic;startArrow=classic;html=1;rounded=0;exitX=0.5;exitY=0;exitDx=0;exitDy=0;exitPerimeter=0;entryX=0.5;entryY=1;entryDx=0;entryDy=0;fontFamily=Tahoma;" parent="1" source="X7fMvcYtnIwSlndWAkHu-44" target="X7fMvcYtnIwSlndWAkHu-39" edge="1">
          <mxGeometry width="50" height="50" relative="1" as="geometry">
            <mxPoint x="450" y="644" as="sourcePoint" />
            <mxPoint x="502" y="594" as="targetPoint" />
          </mxGeometry>
        </mxCell>
        <mxCell id="X7fMvcYtnIwSlndWAkHu-50" value="APP" style="rounded=0;whiteSpace=wrap;html=1;fillColor=#f8cecc;strokeColor=#b85450;shadow=1;fontFamily=Tahoma;" parent="1" vertex="1">
          <mxGeometry x="820" y="276.5" width="100" height="55" as="geometry" />
        </mxCell>
        <mxCell id="X7fMvcYtnIwSlndWAkHu-52" value="" style="endArrow=classic;startArrow=classic;html=1;rounded=1;entryX=0.5;entryY=1;entryDx=0;entryDy=0;curved=0;fontFamily=Tahoma;" parent="1" target="X7fMvcYtnIwSlndWAkHu-12" edge="1">
          <mxGeometry width="50" height="50" relative="1" as="geometry">
            <mxPoint x="560" y="539" as="sourcePoint" />
            <mxPoint x="610" y="489" as="targetPoint" />
            <Array as="points">
              <mxPoint x="694" y="539" />
            </Array>
          </mxGeometry>
        </mxCell>
        <mxCell id="X7fMvcYtnIwSlndWAkHu-53" value="" style="endArrow=classic;startArrow=classic;html=1;rounded=0;entryX=0;entryY=0.5;entryDx=0;entryDy=0;exitX=1;exitY=0.5;exitDx=0;exitDy=0;fontFamily=Tahoma;" parent="1" source="X7fMvcYtnIwSlndWAkHu-12" target="X7fMvcYtnIwSlndWAkHu-50" edge="1">
          <mxGeometry width="50" height="50" relative="1" as="geometry">
            <mxPoint x="760" y="309" as="sourcePoint" />
            <mxPoint x="810" y="259" as="targetPoint" />
          </mxGeometry>
        </mxCell>
        <mxCell id="X7fMvcYtnIwSlndWAkHu-54" value="P2P Network" style="ellipse;shape=cloud;whiteSpace=wrap;html=1;fillColor=#dae8fc;strokeColor=#6c8ebf;fontFamily=Tahoma;" parent="1" vertex="1">
          <mxGeometry x="93" y="10" width="120" height="80" as="geometry" />
        </mxCell>
        <mxCell id="X7fMvcYtnIwSlndWAkHu-55" value="" style="endArrow=classic;startArrow=classic;html=1;rounded=0;exitX=0.5;exitY=0;exitDx=0;exitDy=0;entryX=0.5;entryY=0.988;entryDx=0;entryDy=0;entryPerimeter=0;" parent="1" source="X7fMvcYtnIwSlndWAkHu-1" target="X7fMvcYtnIwSlndWAkHu-54" edge="1">
          <mxGeometry width="50" height="50" relative="1" as="geometry">
            <mxPoint x="110" y="130" as="sourcePoint" />
            <mxPoint x="160" y="80" as="targetPoint" />
          </mxGeometry>
        </mxCell>
        <mxCell id="X7fMvcYtnIwSlndWAkHu-60" value="" style="endArrow=classic;startArrow=classic;html=1;rounded=1;entryX=0.5;entryY=0;entryDx=0;entryDy=0;curved=0;" parent="1" target="X7fMvcYtnIwSlndWAkHu-12" edge="1">
          <mxGeometry width="50" height="50" relative="1" as="geometry">
            <mxPoint x="310" y="274" as="sourcePoint" />
            <mxPoint x="360" y="230" as="targetPoint" />
            <Array as="points">
              <mxPoint x="350" y="190" />
              <mxPoint x="694" y="190" />
            </Array>
          </mxGeometry>
        </mxCell>
        <mxCell id="X7fMvcYtnIwSlndWAkHu-62" value="rocksdb/leveldb" style="text;strokeColor=none;align=center;fillColor=none;html=1;verticalAlign=middle;whiteSpace=wrap;rounded=0;fontFamily=Tahoma;fontSize=16;" parent="1" vertex="1">
          <mxGeometry x="630" y="650" width="86" height="40" as="geometry" />
        </mxCell>
        <mxCell id="X7fMvcYtnIwSlndWAkHu-63" value="write wal log" style="text;strokeColor=none;align=center;fillColor=none;html=1;verticalAlign=middle;whiteSpace=wrap;rounded=0;fontFamily=Tahoma;fontSize=16;" parent="1" vertex="1">
          <mxGeometry x="392" y="600" width="220" height="30" as="geometry" />
        </mxCell>
        <mxCell id="biFFm7S5w4ii-SgIbjmA-16" style="edgeStyle=orthogonalEdgeStyle;rounded=0;orthogonalLoop=1;jettySize=auto;html=1;exitX=0.75;exitY=0;exitDx=0;exitDy=0;entryX=0.317;entryY=-0.033;entryDx=0;entryDy=0;entryPerimeter=0;fontFamily=Tahoma;" edge="1" parent="1" source="M2bukFVJOcPTOaZUWw6n-1" target="M2bukFVJOcPTOaZUWw6n-1">
          <mxGeometry relative="1" as="geometry">
            <mxPoint x="1140" y="390" as="targetPoint" />
            <Array as="points">
              <mxPoint x="1190" y="510" />
              <mxPoint x="1138" y="510" />
            </Array>
          </mxGeometry>
        </mxCell>
        <mxCell id="biFFm7S5w4ii-SgIbjmA-17" value="把binlog数据转化为可读业务数据" style="edgeLabel;html=1;align=center;verticalAlign=middle;resizable=0;points=[];fontSize=12;fontFamily=Tahoma;" vertex="1" connectable="0" parent="biFFm7S5w4ii-SgIbjmA-16">
          <mxGeometry x="0.0713" y="-3" relative="1" as="geometry">
            <mxPoint as="offset" />
          </mxGeometry>
        </mxCell>
        <mxCell id="M2bukFVJOcPTOaZUWw6n-1" value="parser service" style="rounded=0;whiteSpace=wrap;html=1;fillColor=#dae8fc;strokeColor=#6c8ebf;shadow=1;fontFamily=Tahoma;" parent="1" vertex="1">
          <mxGeometry x="1100" y="555" width="120" height="60" as="geometry" />
        </mxCell>
        <mxCell id="biFFm7S5w4ii-SgIbjmA-1" value="business service" style="rounded=0;whiteSpace=wrap;html=1;fillColor=#dae8fc;strokeColor=#6c8ebf;shadow=1;fontFamily=Tahoma;" vertex="1" parent="1">
          <mxGeometry x="1420" y="700" width="120" height="60" as="geometry" />
        </mxCell>
        <mxCell id="biFFm7S5w4ii-SgIbjmA-2" value="Databend" style="strokeWidth=2;html=1;shape=mxgraph.flowchart.database;whiteSpace=wrap;fillColor=#1ba1e2;fontColor=#ffffff;strokeColor=#006EAF;fontFamily=Tahoma;" vertex="1" parent="1">
          <mxGeometry x="1450" y="560" width="60" height="55" as="geometry" />
        </mxCell>
        <mxCell id="biFFm7S5w4ii-SgIbjmA-9" style="edgeStyle=orthogonalEdgeStyle;rounded=0;orthogonalLoop=1;jettySize=auto;html=1;exitX=0.5;exitY=1;exitDx=0;exitDy=0;entryX=0;entryY=0.5;entryDx=0;entryDy=0;dashed=1;fontFamily=Tahoma;" edge="1" parent="1" source="biFFm7S5w4ii-SgIbjmA-21" target="biFFm7S5w4ii-SgIbjmA-1">
          <mxGeometry relative="1" as="geometry" />
        </mxCell>
        <mxCell id="biFFm7S5w4ii-SgIbjmA-3" value="" style="shape=image;verticalLabelPosition=bottom;labelBackgroundColor=default;verticalAlign=top;aspect=fixed;imageAspect=0;image=https://ebpf.io/static/logo-black-98b7a1413b4a74ed961d292cf83da82e.svg;" vertex="1" parent="1">
          <mxGeometry x="810" y="566" width="106" height="37" as="geometry" />
        </mxCell>
        <mxCell id="biFFm7S5w4ii-SgIbjmA-6" value="" style="endArrow=classic;html=1;rounded=0;exitX=0;exitY=0.5;exitDx=0;exitDy=0;" edge="1" parent="1" source="biFFm7S5w4ii-SgIbjmA-3">
          <mxGeometry width="50" height="50" relative="1" as="geometry">
            <mxPoint x="810" y="583" as="sourcePoint" />
            <mxPoint x="500" y="583" as="targetPoint" />
          </mxGeometry>
        </mxCell>
        <mxCell id="biFFm7S5w4ii-SgIbjmA-11" value="解析binlog数据" style="edgeLabel;html=1;align=center;verticalAlign=middle;resizable=0;points=[];fontSize=12;" vertex="1" connectable="0" parent="biFFm7S5w4ii-SgIbjmA-6">
          <mxGeometry x="0.0129" relative="1" as="geometry">
            <mxPoint as="offset" />
          </mxGeometry>
        </mxCell>
        <mxCell id="biFFm7S5w4ii-SgIbjmA-7" value="" style="endArrow=classic;html=1;rounded=0;entryX=0;entryY=0.5;entryDx=0;entryDy=0;exitX=1;exitY=0.5;exitDx=0;exitDy=0;dashed=1;fontFamily=Tahoma;" edge="1" parent="1" source="biFFm7S5w4ii-SgIbjmA-3" target="M2bukFVJOcPTOaZUWw6n-1">
          <mxGeometry width="50" height="50" relative="1" as="geometry">
            <mxPoint x="970" y="570" as="sourcePoint" />
            <mxPoint x="1020" y="520" as="targetPoint" />
          </mxGeometry>
        </mxCell>
        <mxCell id="biFFm7S5w4ii-SgIbjmA-12" value="通过消息发送binlog" style="edgeLabel;html=1;align=center;verticalAlign=middle;resizable=0;points=[];fontSize=12;fontFamily=Tahoma;" vertex="1" connectable="0" parent="biFFm7S5w4ii-SgIbjmA-7">
          <mxGeometry x="-0.2827" y="3" relative="1" as="geometry">
            <mxPoint as="offset" />
          </mxGeometry>
        </mxCell>
        <mxCell id="biFFm7S5w4ii-SgIbjmA-8" value="" style="endArrow=classic;html=1;rounded=0;entryX=0;entryY=0.5;entryDx=0;entryDy=0;entryPerimeter=0;exitX=1;exitY=0.5;exitDx=0;exitDy=0;dashed=1;fontFamily=Tahoma;" edge="1" parent="1" source="M2bukFVJOcPTOaZUWw6n-1" target="biFFm7S5w4ii-SgIbjmA-2">
          <mxGeometry width="50" height="50" relative="1" as="geometry">
            <mxPoint x="1220" y="590" as="sourcePoint" />
            <mxPoint x="1270" y="540" as="targetPoint" />
          </mxGeometry>
        </mxCell>
        <mxCell id="biFFm7S5w4ii-SgIbjmA-19" value="发送消息到databend报存" style="edgeLabel;html=1;align=center;verticalAlign=middle;resizable=0;points=[];fontSize=12;fontFamily=Tahoma;" vertex="1" connectable="0" parent="biFFm7S5w4ii-SgIbjmA-8">
          <mxGeometry x="-0.0435" y="2" relative="1" as="geometry">
            <mxPoint y="1" as="offset" />
          </mxGeometry>
        </mxCell>
        <mxCell id="biFFm7S5w4ii-SgIbjmA-22" value="" style="edgeStyle=orthogonalEdgeStyle;rounded=0;orthogonalLoop=1;jettySize=auto;html=1;exitX=0.5;exitY=1;exitDx=0;exitDy=0;entryX=0;entryY=0.5;entryDx=0;entryDy=0;dashed=1;fontFamily=Tahoma;" edge="1" parent="1" source="biFFm7S5w4ii-SgIbjmA-3" target="biFFm7S5w4ii-SgIbjmA-21">
          <mxGeometry relative="1" as="geometry">
            <mxPoint x="863" y="603" as="sourcePoint" />
            <mxPoint x="1420" y="730" as="targetPoint" />
          </mxGeometry>
        </mxCell>
        <mxCell id="biFFm7S5w4ii-SgIbjmA-23" value="发送消息到业务服务" style="edgeLabel;html=1;align=center;verticalAlign=middle;resizable=0;points=[];fontSize=12;fontFamily=Tahoma;" vertex="1" connectable="0" parent="biFFm7S5w4ii-SgIbjmA-22">
          <mxGeometry x="-0.1053" relative="1" as="geometry">
            <mxPoint y="1" as="offset" />
          </mxGeometry>
        </mxCell>
        <mxCell id="biFFm7S5w4ii-SgIbjmA-21" value="parser sdk" style="rounded=0;whiteSpace=wrap;html=1;fillColor=#dae8fc;strokeColor=#6c8ebf;shadow=1;fontFamily=Tahoma;" vertex="1" parent="1">
          <mxGeometry x="1370" y="710" width="60" height="40" as="geometry" />
        </mxCell>
        <mxCell id="biFFm7S5w4ii-SgIbjmA-24" style="edgeStyle=orthogonalEdgeStyle;rounded=0;orthogonalLoop=1;jettySize=auto;html=1;exitX=0.75;exitY=1;exitDx=0;exitDy=0;entryX=0.25;entryY=1;entryDx=0;entryDy=0;" edge="1" parent="1" source="biFFm7S5w4ii-SgIbjmA-21" target="biFFm7S5w4ii-SgIbjmA-21">
          <mxGeometry relative="1" as="geometry">
            <Array as="points">
              <mxPoint x="1415" y="810" />
              <mxPoint x="1385" y="810" />
            </Array>
          </mxGeometry>
        </mxCell>
        <mxCell id="biFFm7S5w4ii-SgIbjmA-25" value="&lt;span style=&quot;font-family: Tahoma; font-size: 12px;&quot;&gt;转化为可读业务数据&lt;/span&gt;" style="edgeLabel;html=1;align=center;verticalAlign=middle;resizable=0;points=[];" vertex="1" connectable="0" parent="biFFm7S5w4ii-SgIbjmA-24">
          <mxGeometry x="0.0267" y="3" relative="1" as="geometry">
            <mxPoint as="offset" />
          </mxGeometry>
        </mxCell>
      </root>
    </mxGraphModel>
  </diagram>
</mxfile>
